<?xml version="1.0" standalone="no"?>
<!DOCTYPE svg PUBLIC "-//W3C//DTD SVG 20010904//EN"
 "http://www.w3.org/TR/2001/REC-SVG-20010904/DTD/svg10.dtd">
<svg version="1.0" xmlns="http://www.w3.org/2000/svg"
 width="241.000000pt" height="160.000000pt" viewBox="0 0 241.000000 160.000000"
 preserveAspectRatio="xMidYMid meet">
<metadata>
Created by potrace 1.16, written by Peter Selinger 2001-2019
</metadata>
<g transform="translate(0.000000,160.000000) scale(0.100000,-0.100000)"
fill="#000000" stroke="none">
<path d="M0 800 l0 -800 1205 0 1205 0 0 800 0 800 -1205 0 -1205 0 0 -800z
m1329 545 c95 -23 177 -70 256 -150 115 -114 165 -235 166 -395 0 -107 -13
-165 -58 -259 -88 -183 -291 -311 -493 -311 -309 1 -561 256 -560 568 0 129
45 253 129 359 43 55 145 133 205 158 109 46 240 57 355 30z"/>
<path d="M1120 1340 c-74 -12 -159 -44 -217 -83 -71 -49 -73 -55 -33 -137 41
-85 88 -135 172 -185 75 -46 73 -44 66 -50 -9 -9 -130 67 -170 107 -20 20 -51
61 -67 90 l-31 53 0 -40 c0 -30 -3 -36 -10 -25 -5 8 -10 40 -10 70 l-1 55 -29
-35 c-17 -19 -38 -49 -49 -66 -16 -26 -16 -33 -5 -49 11 -14 14 -70 15 -234 1
-119 5 -247 9 -286 4 -38 5 58 3 215 -2 157 -6 301 -8 320 -4 31 -3 33 9 17
10 -13 15 -95 21 -332 4 -174 10 -317 14 -319 4 -3 6 82 4 187 -2 106 -1 188
1 182 2 -5 12 -100 22 -210 12 -148 21 -205 33 -218 23 -27 128 -83 190 -101
72 -21 221 -21 292 0 59 18 150 62 187 92 22 17 25 34 47 248 l24 229 -5 -210
c-2 -125 -1 -204 4 -195 5 8 12 153 15 323 4 193 10 314 17 325 8 12 10 -69 7
-298 -3 -214 -2 -270 3 -175 4 77 8 202 9 278 0 76 6 147 11 158 12 22 3 43
-44 104 l-31 39 -11 -59 c-11 -56 -12 -57 -13 -20 l-2 40 -31 -58 c-36 -66
-112 -139 -187 -179 -74 -40 -63 -19 13 25 35 21 83 58 106 83 44 47 105 167
97 189 -9 22 -119 88 -186 111 -78 26 -174 35 -251 24z m30 -59 c18 7 49 8 73
5 23 -4 54 -7 70 -7 15 1 27 -3 27 -9 0 -5 -10 -10 -22 -11 -16 0 -18 -2 -8
-6 23 -9 30 -24 30 -65 0 -31 -4 -38 -20 -38 -11 0 -20 -5 -20 -11 0 -5 -5 -7
-11 -3 -6 3 -24 -3 -40 -15 l-30 -22 -26 20 c-14 12 -30 21 -36 21 -5 0 7 -11
27 -25 l37 -25 26 20 c33 26 46 25 38 -2 -5 -19 -3 -18 10 5 9 15 24 27 35 27
17 0 20 -7 20 -42 0 -42 -39 -139 -74 -183 -15 -19 -15 -18 -17 20 -2 36 -3
37 -6 9 -2 -18 -12 -39 -23 -49 -17 -15 -19 -15 -34 7 -9 12 -16 16 -16 9 0
-44 -73 80 -89 151 -18 80 11 106 50 46 12 -18 18 -24 14 -13 -4 11 -10 28
-12 38 -3 9 -14 17 -24 17 -15 0 -19 7 -19 38 0 41 7 56 30 65 9 3 4 6 -12 6
-16 1 -28 5 -28 9 0 16 13 21 30 12 12 -6 29 -6 50 1z m-291 -261 c26 -32 68
-61 130 -95 98 -51 167 -106 190 -149 8 -14 17 -26 20 -26 4 0 15 16 26 36 22
41 84 88 174 134 89 45 116 66 167 133 24 33 44 54 44 49 0 -67 -73 -719 -82
-729 -31 -38 -92 -57 -186 -58 -87 -1 -94 -3 -122 -30 -17 -16 -30 -24 -30
-17 0 28 -53 46 -139 47 -54 1 -99 7 -121 17 -75 34 -69 9 -109 412 -34 339
-35 366 -19 345 11 -13 36 -44 57 -69z"/>
<path d="M1224 697 c4 -30 2 -46 -4 -42 -6 3 -10 14 -10 23 0 9 -5 24 -11 32
-8 11 -9 5 -5 -25 4 -28 3 -34 -4 -20 -8 19 -9 20 -9 1 -1 -16 -4 -17 -13 -8
-7 7 -36 12 -65 12 -50 0 -53 -2 -53 -24 0 -14 -5 -28 -12 -32 -7 -5 -9 -2 -6
8 4 8 2 21 -3 29 -6 9 -8 -2 -7 -33 1 -27 6 -48 13 -50 8 -2 9 -10 4 -23 -8
-19 -8 -19 -14 2 -4 12 -18 29 -31 38 -48 31 -18 95 43 95 24 0 31 4 28 18 -2
13 -12 17 -45 16 -54 -1 -90 -37 -90 -90 0 -39 39 -84 71 -84 16 0 19 -8 19
-52 0 -68 14 -94 29 -55 16 42 14 75 -6 80 -16 4 -16 5 1 6 11 1 16 6 13 14
-4 10 3 12 24 9 27 -4 28 -7 31 -61 2 -42 7 -56 18 -56 12 0 16 19 18 98 2 77
6 97 17 97 8 0 15 5 15 10 0 6 5 10 10 10 6 0 10 -7 10 -15 0 -8 5 -15 10 -15
6 0 10 5 10 11 0 5 5 7 10 4 8 -5 7 -11 -1 -21 -9 -11 -7 -14 15 -14 24 0 26
-3 26 -45 0 -38 3 -45 20 -45 17 0 20 7 20 43 l0 42 26 -42 c26 -45 31 -47 84
-36 l33 6 -32 11 c-43 14 -70 58 -52 80 8 9 24 16 36 16 32 0 41 -29 15 -47
-21 -15 -19 -34 3 -32 8 0 8 2 -1 6 -10 4 -7 9 8 20 12 8 19 21 16 29 -3 7 2
17 10 22 22 12 29 71 9 78 -8 4 -22 1 -30 -6 -10 -8 -15 -9 -15 -2 0 6 8 16
18 21 16 10 16 10 -1 11 -29 0 -54 -18 -60 -43 -4 -12 -20 -36 -37 -52 l-30
-29 0 37 c0 33 -3 37 -26 37 -25 0 -26 2 -19 38 6 34 5 35 -8 18 -14 -19 -14
-19 -26 0 -10 16 -11 11 -7 -29z"/>
<path d="M703 1023 c-41 -94 -56 -201 -42 -303 6 -41 14 -81 19 -89 4 -8 12
75 16 185 10 224 11 217 23 -86 l8 -215 0 175 c1 96 -2 217 -6 268 -5 84 -7
90 -18 65z"/>
<path d="M1676 1020 c-8 -39 -12 -499 -3 -493 4 2 7 111 8 241 1 134 4 226 9
212 4 -14 9 -68 10 -120 1 -52 5 -126 9 -165 l6 -70 13 66 c6 36 12 86 12 110
0 53 -23 161 -43 209 -15 34 -15 34 -21 10z"/>
</g>
</svg>
